<?xml version="1.0" encoding="UTF-8"?> <svg xmlns="http://www.w3.org/2000/svg" width="120" height="34" viewBox="0 0 120 34" fill="none"><g clip-path="url(#clip0_1800_5123)"><path d="M25.6734 7.98608C25.4441 7.41561 25.1003 6.84514 24.6418 6.38876C24.1834 5.93239 23.6103 5.47601 22.808 5.24782C22.0057 5.01964 21.0888 4.79145 19.9427 4.79145C17.5358 4.79145 15.3582 5.47601 13.1805 6.84514C9.97135 3.19413 4.12607 5.01964 0 6.73105V16.7713H2.06304V8.21427C2.06304 8.21427 4.46991 6.50286 7.7937 6.50286C10.659 6.50286 12.0344 7.6438 12.0344 9.81158V16.6572H14.0974V9.81158C14.0974 9.35521 13.9828 8.78474 13.8682 8.32836C14.5559 7.87199 15.4728 7.41561 16.5043 7.07333C17.5358 6.73105 18.6819 6.50286 19.8281 6.50286C22.6934 6.50286 24.0688 7.6438 24.0688 9.81158V16.6572H26.1318V9.81158C25.9026 9.12702 25.788 8.55655 25.6734 7.98608Z" fill="#101820"></path><path d="M52.3782 16.0871L52.6075 14.3757C55.3582 14.9462 58.1089 15.1744 60.745 15.1744C63.3811 15.1744 65.1003 14.9462 66.0172 14.6039C66.4757 14.3757 66.8195 14.2616 66.9341 13.9193C67.1633 13.6912 67.278 13.3489 67.278 12.8925C67.278 12.4361 67.1633 12.0938 66.8195 11.8657C66.5903 11.6375 66.0172 11.5234 65.3295 11.4093C64.5272 11.4093 63.0373 11.4093 60.6304 11.4093C58.3381 11.4093 56.7335 11.4093 55.702 11.2952C54.6705 11.1811 53.8682 11.067 53.4098 10.8388C52.3782 10.3824 51.8052 9.58378 51.8052 8.44284C51.8052 6.95961 52.6075 6.04686 54.0974 5.47639C55.5874 5.02002 57.6504 4.67773 60.5158 4.67773C61.7765 4.67773 63.0373 4.67773 64.298 4.79183C65.5588 4.90592 66.4757 5.02002 67.1633 5.13411L68.0802 5.2482L67.851 6.95961C65.4441 6.50324 63.0373 6.38914 60.6304 6.38914C57.9943 6.38914 56.1605 6.61733 55.0143 6.95961C54.2121 7.1878 53.8682 7.75827 53.8682 8.44284C53.8682 9.01331 54.2121 9.46968 54.8997 9.69787C55.4728 9.81196 57.3066 9.92606 60.6304 9.92606C63.8396 9.92606 65.9026 10.0402 66.8195 10.1542C68.5387 10.4965 69.341 11.4093 69.341 13.0066C69.341 14.3757 68.7679 15.4026 67.7364 15.973C67.0487 16.3153 66.1318 16.5435 64.8711 16.7717C63.6103 16.8858 62.235 16.9999 60.8596 16.9999C57.5358 16.8858 54.7851 16.5435 52.3782 16.0871Z" fill="#101820"></path><path d="M110.143 16.8869C106.705 16.8869 104.184 16.3165 102.579 15.2896C101.089 14.3769 100.401 12.8936 100.401 10.8399C100.401 8.90035 101.089 7.41713 102.579 6.39028C104.184 5.36344 106.82 4.79297 110.258 4.79297C113.696 4.79297 116.218 5.36344 117.937 6.39028C119.427 7.30304 120.115 8.78626 120.115 10.8399C120.115 12.8936 119.427 14.3769 117.937 15.2896C116.103 16.4306 113.582 16.8869 110.143 16.8869ZM110.143 15.2896C112.894 15.2896 114.957 14.8332 116.218 14.0346C117.25 13.35 117.823 12.3232 117.823 10.8399C117.823 9.35673 117.25 8.32988 116.218 7.64532C114.957 6.84666 112.894 6.50438 110.029 6.50438C107.164 6.50438 105.101 6.84666 103.84 7.64532C102.808 8.32988 102.235 9.35673 102.235 10.8399C102.235 12.3232 102.808 13.35 103.84 14.0346C105.33 14.8332 107.393 15.2896 110.143 15.2896Z" fill="#101820"></path><path d="M15.8166 34.0004C15.5874 34.0004 15.2436 34.0004 15.0143 34.0004C10.3152 33.8863 7.44985 33.2018 6.76217 31.8326C6.41833 31.2622 6.53295 30.6917 6.87679 30.0071C8.7106 27.2689 19.4842 24.1883 38.9685 22.8192C44.5845 17.2286 47.9083 10.4971 48.8252 6.0474C49.5129 3.08096 49.0545 1.71183 48.7106 1.59774C48.7106 1.59774 47.2206 1.02727 43.3238 6.73197C34.7278 19.0541 32.0917 20.081 30.4871 19.5105C28.6533 18.7118 28.5387 15.289 30.1433 6.38968L31.7479 6.61787C30.0287 16.3159 30.7163 17.7991 31.1748 17.9132C31.5186 18.0273 33.4671 18.0273 41.9484 5.81921C45.1576 1.25545 47.5645 -0.684143 49.2837 0.114515C50.7736 0.799079 51.1175 2.96686 50.3152 6.38968C49.3983 10.7253 46.4183 17.1145 41.2607 22.7051C54.4413 21.9065 71.1748 21.9065 91.4613 23.1615L91.3467 24.7588C69.5702 23.3897 52.4928 23.5038 39.5416 24.4165C33.9255 29.7789 26.0172 34.0004 15.8166 34.0004ZM36.9055 24.5306C19.255 25.8997 10.2006 28.638 8.25215 30.5776C8.02292 30.8058 8.02292 30.9199 8.02292 30.9199C8.02292 31.1481 9.39828 32.1749 14.8997 32.289C24.298 32.5172 31.5186 29.2085 36.9055 24.5306Z" fill="#41B738"></path><path d="M96.6192 4.79297C95.0146 4.79297 93.6392 4.90706 92.3785 5.24934C91.2323 5.59163 90.3154 5.81981 89.7424 6.27619L89.6278 6.61847H89.5131L89.3985 5.02116H87.7939V16.6587H89.857V7.75941L90.5447 7.41713C91.0031 7.18894 91.8054 6.96075 92.9515 6.73257C94.0977 6.50438 95.2438 6.39028 96.5045 6.39028C97.5361 6.39028 98.453 6.50438 99.2553 6.61847L99.5991 5.02116C98.5676 4.90706 97.5361 4.79297 96.6192 4.79297Z" fill="#101820"></path><path d="M80.6877 15.2896C79.5415 15.2896 78.51 15.2896 77.7077 15.1755C76.9054 15.0614 76.2177 14.9473 75.7593 14.7191C75.3008 14.4909 74.8424 14.2627 74.6132 13.9205C74.3839 13.5782 74.1547 13.2359 74.0401 12.8936C73.9255 12.5513 73.9255 12.095 73.9255 11.5245V6.73254H83.6676C83.6676 6.16207 83.6676 5.47751 83.6676 5.02113H74.0401V2.05469H73.3524L71.9771 2.28288V5.02113V6.73254V11.6386C71.9771 12.3231 72.0917 13.0077 72.2063 13.4641C72.3209 13.9205 72.5501 14.4909 73.0086 14.9473C73.467 15.4037 73.9255 15.746 74.4985 16.0882C75.1862 16.3164 75.9885 16.5446 77.02 16.7728C78.0515 16.8869 79.3123 17.001 80.8023 17.001C82.4069 17.001 83.7822 16.8869 85.1576 16.6587L84.8137 14.9473C83.553 15.0614 82.1776 15.2896 80.6877 15.2896Z" fill="#101820"></path></g><defs><clipPath id="clip0_1800_5123"><rect width="120" height="34" fill="white"></rect></clipPath></defs></svg> 